<?xml version="1.0" standalone="no"?>
<!DOCTYPE svg PUBLIC "-//W3C//DTD SVG 20010904//EN"
 "http://www.w3.org/TR/2001/REC-SVG-20010904/DTD/svg10.dtd">
<svg version="1.0" xmlns="http://www.w3.org/2000/svg"
 width="1300.000000pt" height="716.000000pt" viewBox="0 0 1300.000000 716.000000"
 preserveAspectRatio="xMidYMid meet">

<g transform="translate(0.000000,716.000000) scale(0.100000,-0.100000)"
fill="#000000" stroke="none">
<path d="M4940 7136 c0 -22 -48 -223 -57 -238 -3 -7 -146 86 -222 144 -13 10
-26 16 -29 14 -17 -17 -83 -480 -89 -625 l-6 -134 -52 56 c-28 31 -105 118
-171 193 -122 139 -131 150 -220 245 -79 84 -171 169 -184 169 -7 0 -9 -17 -4
-52 7 -61 49 -261 69 -330 8 -27 12 -48 9 -48 -3 0 -28 17 -57 38 -29 21 -78
55 -110 77 -32 21 -76 57 -99 79 -22 23 -38 33 -35 23 8 -23 65 -310 107 -537
18 -96 40 -205 50 -243 14 -52 15 -65 5 -60 -31 18 -175 153 -395 370 l-234
231 -81 -77 c-44 -42 -111 -99 -150 -125 -38 -27 -74 -53 -79 -57 -11 -10 26
-67 108 -169 59 -74 98 -119 281 -329 87 -101 111 -129 256 -292 36 -41 93
-105 125 -144 32 -38 67 -78 76 -87 21 -21 235 -291 263 -332 41 -59 55 -81
55 -87 0 -4 -111 49 -247 118 -145 73 -254 122 -265 120 -10 -3 -16 -1 -13 3
3 5 -5 15 -17 22 -34 18 -459 223 -663 318 -44 21 -134 63 -200 95 -218 105
-329 157 -372 176 l-42 18 -76 -71 c-92 -86 -135 -146 -135 -187 0 -17 3 -31
8 -31 4 0 25 -17 47 -38 22 -21 81 -71 130 -112 50 -41 112 -95 140 -122 l50
-47 -40 -17 c-62 -26 -142 -14 -250 37 -50 23 -92 43 -95 43 -3 1 -18 11 -35
22 -33 24 -174 97 -219 114 -34 12 -36 24 24 -140 79 -222 104 -285 113 -298
16 -21 4 -23 -79 -11 -45 6 -127 9 -193 5 -97 -5 -123 -10 -175 -34 -54 -25
-216 -144 -216 -157 0 -20 111 -165 193 -252 77 -81 268 -232 294 -233 5 0 18
-8 30 -18 l23 -17 -33 -26 c-36 -28 -119 -66 -187 -84 -91 -25 -156 -58 -220
-110 -166 -136 -449 -461 -592 -680 -44 -67 -88 -148 -88 -160 0 -3 42 34 93
83 252 244 558 452 817 555 117 47 193 67 319 84 103 14 140 15 213 5 l88 -11
108 -87 c92 -76 297 -249 312 -264 3 -3 43 -39 90 -80 47 -41 87 -78 90 -81 3
-4 25 -23 49 -43 79 -66 221 -198 341 -317 122 -123 121 -122 235 -134 107
-12 348 -54 419 -75 165 -47 637 -144 1321 -270 230 -43 451 -87 560 -112 115
-26 320 -124 535 -255 36 -21 72 -42 80 -46 25 -11 212 -130 578 -365 114 -73
216 -138 227 -144 19 -11 19 -10 5 8 -29 38 -137 161 -265 303 -71 80 -146
163 -165 185 -253 288 -389 408 -605 534 -48 28 -97 70 -157 134 -128 137
-290 303 -666 682 -396 398 -354 366 -852 648 -163 93 -240 135 -380 211 -30
16 -98 53 -150 82 -118 65 -213 116 -310 168 -154 81 -197 106 -299 171 -57
36 -108 63 -114 59 -5 -3 -7 -1 -4 4 4 6 1 13 -7 16 -30 12 -463 304 -586 396
-159 118 -238 188 -277 244 -30 43 -21 59 27 52 14 -2 43 -6 66 -9 116 -16
480 -159 839 -331 553 -265 851 -435 1337 -760 l257 -172 -103 126 c-56 69
-138 173 -181 229 -44 57 -107 139 -140 182 -33 42 -87 113 -120 156 -33 42
-107 132 -164 198 -57 67 -113 135 -125 152 -80 117 -247 372 -322 492 -49 79
-115 185 -147 235 -31 51 -65 106 -73 122 l-16 30 33 -30 c18 -16 38 -35 44
-41 5 -5 57 -50 115 -99 58 -49 134 -114 170 -145 118 -102 367 -290 384 -290
45 0 -125 563 -292 968 -16 39 -28 72 -27 72 2 0 39 -35 83 -77 80 -79 148
-154 433 -473 144 -161 231 -250 243 -250 3 0 3 7 -1 16 -3 10 124 -113 283
-272 261 -262 467 -453 565 -526 22 -16 56 -63 89 -120 29 -51 61 -106 70
-123 58 -101 457 -797 505 -880 32 -55 66 -113 75 -130 50 -87 243 -417 260
-445 5 -8 44 -73 86 -145 106 -180 261 -429 283 -457 11 -13 -13 42 -52 122
-75 151 -169 347 -245 510 -24 52 -64 138 -89 190 -25 52 -65 139 -89 193 -24
54 -49 105 -54 115 -5 9 -26 53 -46 97 -20 44 -61 134 -91 200 -56 124 -84
207 -135 405 -48 191 -88 309 -109 329 -21 19 -149 84 -209 106 -19 7 -65 27
-102 44 l-68 30 0 50 0 50 -72 55 c-139 105 -545 412 -697 526 -210 158 -206
154 -297 315 -33 58 -223 348 -315 478 -22 33 -39 61 -37 63 6 5 236 -164 354
-259 10 -8 132 -109 269 -222 138 -114 268 -216 290 -226 45 -21 66 -34 325
-205 280 -185 362 -243 470 -335 63 -54 89 -101 245 -449 52 -118 102 -222
110 -230 8 -9 12 -19 9 -22 -3 -4 17 -57 44 -120 27 -62 66 -149 85 -193 19
-44 39 -79 44 -78 4 1 9 -11 9 -25 1 -15 52 -144 114 -287 62 -143 122 -285
135 -315 25 -61 118 -281 172 -405 19 -44 75 -174 125 -290 92 -217 95 -223
146 -340 249 -565 335 -745 352 -745 6 0 10 43 10 108 -1 180 -59 535 -185
1117 -71 329 -107 484 -191 840 -13 55 -33 138 -44 185 -42 177 -60 231 -87
265 -39 47 -142 125 -313 239 -366 241 -406 275 -419 355 -10 61 3 221 24 302
8 31 15 62 15 68 0 6 -55 38 -122 70 -68 32 -202 97 -298 144 -96 46 -263 127
-370 179 -107 52 -244 119 -305 148 -60 30 -113 58 -116 62 -10 15 -121 403
-174 613 -44 171 -115 427 -121 437 -3 4 -3 8 1 8 3 0 14 -14 25 -32 36 -60
154 -170 225 -209 39 -21 76 -39 82 -39 7 0 59 -35 115 -77 146 -109 179 -132
253 -183 36 -25 100 -69 143 -99 237 -167 1034 -693 1277 -844 50 -30 98 -62
108 -69 14 -10 25 -54 47 -183 16 -94 40 -236 54 -317 56 -318 79 -453 122
-698 42 -241 55 -316 119 -675 15 -82 35 -197 45 -255 93 -531 203 -1090 219
-1118 13 -22 13 -25 1 213 -5 105 -17 330 -25 500 -8 171 -22 411 -29 535 -8
124 -18 279 -21 345 -3 66 -13 217 -20 335 -8 118 -22 334 -30 480 -25 445
-36 624 -41 655 -4 27 -29 46 -269 195 -146 91 -283 176 -305 190 -22 14 -76
48 -121 75 -44 28 -99 62 -122 77 -56 36 -104 66 -179 111 -35 21 -82 50 -105
65 -24 15 -308 193 -632 395 l-588 368 -17 122 c-9 67 -16 152 -16 190 l0 67
43 -27 c39 -26 135 -96 286 -210 141 -107 251 -179 309 -205 24 -11 108 -61
185 -112 78 -51 286 -182 462 -291 176 -109 349 -217 385 -240 36 -23 99 -62
140 -87 204 -124 494 -311 615 -396 39 -27 40 -30 47 -102 3 -41 11 -203 18
-360 6 -157 20 -465 30 -685 10 -220 22 -472 25 -560 3 -88 15 -338 25 -555
11 -217 22 -486 26 -598 4 -111 8 -201 10 -199 3 3 18 116 53 417 12 96 32
267 46 380 13 113 35 302 49 420 14 118 36 312 50 430 14 118 37 323 51 455
14 132 32 294 40 360 8 66 21 192 29 280 l15 160 -22 24 c-23 25 -156 113
-312 208 -62 38 -311 181 -425 243 -443 245 -561 310 -564 310 -2 0 -61 32
-130 70 -70 39 -128 70 -131 70 -2 0 -34 17 -72 38 -68 39 -187 102 -403 215
-166 86 -219 117 -227 132 -5 7 -42 50 -84 96 -42 46 -88 98 -101 114 -27 33
-78 122 -78 136 0 9 129 -54 295 -144 194 -105 314 -167 339 -177 l27 -10 -23
32 c-12 18 -53 73 -90 122 -38 48 -68 90 -68 93 0 5 65 -33 90 -52 73 -57 458
-220 477 -202 3 3 -15 27 -39 54 -24 26 -50 57 -58 67 -14 18 -13 18 10 11 14
-4 61 -23 105 -42 44 -19 91 -39 104 -44 l24 -10 -7 66 -7 66 28 -7 c54 -14
147 -58 406 -193 98 -51 180 -91 182 -89 3 2 -19 24 -47 49 -112 95 -108 96
37 8 83 -50 166 -101 185 -113 19 -13 49 -31 65 -42 17 -10 35 -21 40 -24 6
-3 64 -38 130 -79 223 -138 350 -216 367 -226 10 -5 55 -33 100 -62 46 -28 98
-59 115 -70 18 -10 94 -57 170 -104 132 -82 244 -151 488 -299 61 -37 157 -96
215 -131 58 -35 107 -63 110 -63 3 1 21 -10 40 -25 19 -15 58 -40 85 -56 97
-54 134 -80 135 -93 0 -7 -56 -112 -124 -235 -68 -122 -145 -262 -171 -312
-27 -49 -81 -150 -122 -223 -40 -73 -73 -134 -73 -136 0 -2 -29 -57 -65 -121
-36 -65 -65 -120 -65 -121 0 -2 -35 -68 -78 -146 -43 -79 -98 -181 -122 -228
-24 -47 -78 -150 -120 -230 -42 -80 -109 -212 -149 -295 -40 -82 -80 -166 -90
-185 -10 -19 -21 -48 -25 -65 -7 -30 111 140 242 350 35 55 119 188 187 295
68 107 151 240 186 295 34 55 77 124 96 152 18 29 64 102 101 162 100 163 190
308 237 381 23 36 62 98 86 138 24 40 55 90 69 112 14 22 47 77 74 122 28 46
65 106 84 135 l34 52 44 -22 c24 -11 44 -26 44 -32 0 -6 -11 -27 -25 -47 -14
-20 -25 -39 -25 -42 0 -3 -22 -38 -48 -78 -27 -40 -84 -130 -128 -201 -43 -70
-90 -145 -104 -167 -14 -22 -47 -75 -73 -117 -54 -88 -176 -282 -206 -328 -10
-16 -81 -129 -156 -250 -76 -121 -152 -242 -170 -270 -18 -27 -57 -89 -86
-137 -91 -147 -280 -451 -305 -488 -53 -82 -214 -343 -214 -348 0 -3 28 31 63
74 34 44 68 87 75 94 7 8 81 101 165 206 255 321 913 1129 1032 1269 24 28 96
116 162 196 280 346 366 449 373 449 4 0 15 -9 24 -19 17 -19 13 -25 -104
-178 -107 -140 -261 -343 -453 -597 -34 -44 -66 -85 -70 -91 -12 -15 -528
-707 -553 -741 -35 -49 -130 -188 -138 -202 -4 -7 55 19 131 58 610 313 1240
531 1788 620 72 11 139 23 151 25 11 2 71 6 133 10 95 7 110 10 99 21 -7 8
-76 54 -153 103 -182 117 -505 321 -548 346 -18 11 -58 36 -87 55 -66 43 -98
62 -195 119 -41 25 -75 50 -75 56 0 6 21 43 48 81 26 38 94 142 151 232 103
161 103 163 85 183 -56 62 -960 623 -1444 896 -19 11 -109 63 -200 115 -176
101 -722 404 -955 530 -328 178 -788 399 -931 449 -31 10 -77 33 -102 52 -66
47 -122 69 -174 69 -44 0 -67 -11 -145 -68 -29 -21 -118 -29 -183 -15 -34 7
-82 29 -125 57 -203 131 -347 161 -376 79 -7 -19 -15 -35 -19 -35 -3 0 -27 16
-55 35 -103 73 -125 85 -155 85 -31 0 -65 -26 -87 -65 -10 -18 -14 -17 -58 20
-25 22 -59 51 -75 63 l-29 24 -7 -29 c-4 -15 -14 -43 -21 -61 -14 -33 -15 -33
-38 -18 -30 20 -193 106 -200 106 -3 0 -5 -11 -5 -24z m-2903 -2062 c38 -14
88 -34 113 -44 141 -57 198 -78 500 -190 58 -21 148 -55 200 -75 52 -20 113
-43 135 -50 22 -8 78 -28 125 -45 47 -17 101 -36 120 -41 19 -6 44 -18 55 -28
11 -9 43 -32 70 -51 188 -128 874 -649 1176 -894 149 -121 466 -360 725 -548
276 -199 423 -304 558 -399 94 -66 115 -86 58 -55 -39 21 -178 82 -253 110
-59 22 -165 70 -724 325 -110 51 -209 96 -220 101 -11 4 -45 19 -75 33 -30 13
-84 44 -120 69 -36 24 -121 83 -190 130 -119 81 -229 157 -384 265 -38 26
-141 99 -230 162 -151 108 -329 228 -387 261 -14 8 -63 38 -108 65 -45 28 -89
55 -99 60 -9 6 -59 36 -109 68 -51 31 -97 57 -102 57 -5 0 -11 3 -13 8 -1 4
-28 23 -58 42 -30 19 -71 48 -91 65 -51 46 -224 176 -331 250 -104 73 -224
169 -296 239 -64 62 -129 136 -118 136 3 0 36 -12 73 -26z m-475 -428 c181
-42 358 -103 541 -188 130 -60 185 -67 329 -44 53 9 134 19 181 22 l84 7 44
-40 c24 -23 60 -54 79 -69 19 -16 70 -63 115 -104 44 -42 152 -141 240 -221
215 -194 486 -440 506 -459 8 -8 33 -31 55 -50 80 -72 259 -234 269 -245 51
-53 50 -53 288 -74 l227 -21 63 -49 c73 -57 218 -134 407 -214 74 -31 200 -93
280 -138 80 -44 160 -87 178 -96 52 -25 32 -24 -53 3 -162 50 -597 178 -680
199 -27 7 -102 27 -165 45 -225 63 -661 170 -692 170 -4 0 -2 -13 3 -29 20
-56 158 -134 334 -188 26 -8 19 -11 -52 -16 -44 -3 -127 -16 -182 -27 l-102
-21 -76 53 c-42 29 -100 74 -128 100 -50 45 -271 182 -530 328 -71 40 -141 80
-155 88 -14 9 -54 32 -90 51 -35 18 -92 50 -125 70 -33 21 -152 89 -264 151
-217 123 -270 163 -456 344 -133 131 -220 206 -304 266 -168 119 -284 237
-337 341 -18 37 -30 69 -27 73 13 12 91 5 195 -18z"/>
<path d="M8456 5459 c-5 -14 -19 -87 -56 -294 -12 -66 -34 -190 -50 -275 -16
-85 -41 -220 -55 -300 -14 -80 -33 -179 -41 -220 -8 -41 -21 -111 -29 -155 -7
-44 -38 -215 -69 -380 -30 -165 -58 -313 -60 -330 -3 -16 -19 -102 -35 -190
-17 -88 -42 -225 -56 -305 -46 -252 -73 -398 -120 -655 -25 -137 -57 -311 -71
-385 -13 -74 -33 -182 -45 -239 -11 -57 -18 -105 -16 -108 3 -2 19 33 35 79
17 46 42 112 56 148 44 117 398 993 477 1180 17 41 51 125 76 185 25 61 56
136 69 168 39 92 69 166 108 260 20 48 52 126 72 175 102 246 180 433 319 762
58 138 65 154 153 367 l50 122 -202 112 c-110 62 -228 129 -261 149 -33 20
-96 56 -140 79 -44 24 -86 48 -92 53 -9 7 -14 6 -17 -3z"/>
<path d="M5204 4499 c11 -59 73 -212 147 -362 22 -43 39 -81 39 -84 0 -2 -35
32 -77 78 -83 88 -304 291 -311 285 -9 -10 44 -92 99 -151 34 -36 59 -65 57
-65 -3 0 -65 27 -139 61 -145 66 -179 80 -179 75 0 -2 35 -32 78 -67 165 -136
348 -314 1326 -1288 462 -460 831 -822 821 -806 -11 17 -61 100 -113 185 -375
614 -706 1126 -787 1216 l-45 49 7 -79 6 -80 -30 22 c-64 46 -234 241 -657
755 -125 152 -233 280 -239 284 -7 4 -8 -5 -3 -28z"/>
<path d="M10635 3530 c-22 -10 -66 -24 -97 -30 l-57 -12 37 -26 c20 -14 75
-52 122 -84 47 -32 105 -72 130 -89 46 -32 220 -152 390 -267 52 -36 129 -88
170 -117 77 -53 211 -144 404 -276 59 -41 131 -90 160 -110 62 -43 197 -135
371 -254 190 -129 258 -176 273 -188 10 -8 -32 -18 -160 -39 -95 -15 -227 -36
-293 -48 -333 -57 -440 -68 -680 -74 -1070 -27 -1850 -141 -2247 -330 -222
-105 -474 -327 -658 -579 -19 -27 -44 -60 -56 -75 -74 -95 -256 -432 -277
-512 -3 -11 -14 -20 -24 -20 -18 0 -592 -113 -913 -179 -79 -17 -147 -27 -151
-23 -3 4 -50 66 -104 137 -211 277 -404 492 -492 548 -52 33 -214 80 -373 109
-114 21 -154 23 -455 23 -290 -1 -349 -4 -490 -24 -198 -28 -392 -69 -550
-115 -66 -19 -160 -46 -210 -61 -49 -14 -124 -36 -165 -49 -41 -14 -154 -48
-250 -76 -96 -29 -238 -71 -315 -95 -77 -23 -179 -54 -226 -69 -131 -39 -277
-65 -469 -81 -36 -3 -117 -10 -180 -15 -63 -5 -137 -10 -165 -10 l-50 1 110
55 c142 71 165 83 165 93 0 4 11 13 25 19 14 6 25 16 25 21 0 17 -36 25 -145
30 l-110 6 43 26 c23 14 40 29 37 32 -3 4 -2 5 1 3 3 -2 42 13 87 34 45 21
112 51 148 68 37 17 86 43 110 58 43 27 43 28 19 35 -14 4 -61 8 -105 9 l-80
1 55 20 c60 22 192 62 280 86 30 8 59 18 64 23 14 14 -39 23 -109 18 -36 -2
-65 -3 -65 -1 0 7 88 46 201 89 68 25 128 51 133 55 6 5 19 9 30 10 12 1 -19
7 -68 15 -50 7 -94 18 -99 23 -15 15 105 48 293 81 169 30 301 65 358 94 15 7
95 36 177 64 571 192 1245 282 1897 253 261 -12 280 -12 223 0 -178 37 -468
81 -603 91 -177 13 -393 2 -502 -26 -30 -8 -122 -28 -205 -46 -129 -27 -340
-74 -560 -125 -33 -7 -121 -28 -195 -45 -331 -78 -339 -80 -595 -85 -132 -3
-254 -8 -272 -11 -40 -6 -104 -75 -198 -215 -130 -192 -169 -238 -251 -295
-23 -16 -104 -77 -180 -137 -77 -59 -170 -131 -208 -160 -38 -28 -120 -94
-184 -144 -63 -51 -118 -93 -122 -93 -4 0 -22 24 -40 52 -44 69 -123 191 -192
298 -30 47 -83 130 -118 185 -34 55 -72 116 -85 135 -12 19 -65 100 -117 180
-52 80 -111 172 -131 205 -21 33 -71 112 -112 175 -41 63 -98 153 -127 199
-60 95 -60 95 -148 231 -36 56 -93 144 -127 196 -34 52 -92 143 -129 202 -68
108 -119 188 -233 363 l-62 96 -37 -13 c-46 -16 -145 -17 -363 -3 -93 6 -173
9 -179 7 -5 -1 16 -43 48 -93 32 -49 84 -133 116 -185 32 -52 84 -138 117
-190 33 -52 64 -104 69 -115 6 -11 29 -49 51 -85 37 -58 247 -405 431 -710 74
-123 142 -236 157 -260 5 -8 41 -67 79 -130 64 -106 227 -372 357 -583 89
-144 142 -221 161 -238 46 -41 237 -56 774 -64 228 -3 465 -7 525 -10 133 -6
345 -11 1215 -30 366 -8 917 -22 1225 -30 308 -9 745 -17 970 -19 l410 -3 60
-30 c38 -20 89 -60 137 -108 l76 -76 81 12 c71 11 79 14 68 28 -10 14 -9 14 8
0 19 -15 31 -14 180 16 298 61 484 106 850 209 50 14 118 33 153 42 64 17 76
28 43 39 -11 3 -36 19 -56 35 -21 17 -46 30 -57 30 -28 0 -15 14 65 67 39 27
101 69 137 94 189 133 256 165 487 234 120 36 308 93 418 126 110 33 259 78
330 99 72 22 191 58 265 81 74 22 187 56 250 74 63 18 174 51 245 73 72 22
209 63 305 92 96 29 238 71 315 95 77 24 217 66 310 94 234 69 627 188 700
210 33 10 110 33 170 51 61 17 144 42 185 55 41 13 174 54 295 90 258 77 266
80 259 99 -7 19 -145 126 -284 221 -63 43 -133 91 -155 106 -68 46 -385 252
-493 319 -56 36 -153 97 -215 137 -104 66 -348 219 -593 373 -252 158 -346
218 -442 282 -56 37 -110 68 -120 67 -9 0 -35 -9 -57 -19z"/>
<path d="M10075 3306 c-88 -29 -266 -88 -395 -130 -390 -127 -547 -189 -660
-261 -39 -24 -175 -154 -236 -226 -264 -308 -642 -986 -812 -1454 -36 -99 -72
-235 -72 -270 0 -29 5 -25 112 80 129 125 264 238 458 382 649 481 1240 781
1740 882 162 33 220 35 688 22 491 -13 942 -21 942 -16 0 2 -98 68 -217 148
-362 240 -827 546 -1033 682 -107 70 -224 147 -261 171 -36 24 -72 44 -80 44
-7 -1 -86 -25 -174 -54z"/>
<path d="M8199 2473 c-13 -16 -12 -17 4 -4 16 13 21 21 13 21 -2 0 -10 -8 -17
-17z"/>
<path d="M6353 1723 c9 -2 23 -2 30 0 6 3 -1 5 -18 5 -16 0 -22 -2 -12 -5z"/>
</g>
</svg>
